<?xml version="1.0" encoding="UTF-8" standalone="no"?>
<svg
   xmlns:svg="http://www.w3.org/2000/svg"
   xmlns="http://www.w3.org/2000/svg"
   version="1.1"
   viewBox="0 0 400 660"
   height="660"
   width="400">
  <defs>
    <clipPath
       id="clipPath1001"
       clipPathUnits="userSpaceOnUse">
      <rect
         height="660"
         width="400"
         x="0"
         y="-3"/>
    </clipPath>
  </defs>
  <g
     transform="translate(0,3)"
     clip-path="url(#clipPath1001)">
    <path
       d="m 54.568844,687.50994 c 2.411,-11.842 7.499504,-25.05526 15.4,-40.053 2.151504,-4.08426 4.383689,-8.16362 6.621,-12.252 11.942689,-21.82362 24.288846,-44.39101 26.231996,-70.28 2.49985,-33.30601 -14.747366,-67.73774 -43.051496,-85.4685 -5.671524,-3.55285 -11.672435,-6.54753 -17.7255,-9.4115 -8.307709,-3.93074 -16.098676,-7.76954 -22.362,-13.157 -15.9906759,-13.75454 -28.7242259,-33.54393 -35.848,-55.728 -12.571226,-39.14793 -34.000168,-81.85946 -97.600004,-101.8 -12.21717,-3.83046 -25.148,-6.059 -37.2,-7.853"
       style="opacity:0.1;fill:none;stroke:#c4baaf;stroke-width:20;stroke-linecap:round;stroke-linejoin:round;stroke-miterlimit:4" />
    <path
       d="m 237.59738,695.78241 -34.111,-48.827 c -24.99623,-35.77997 -15.35269,-84.72097 -10.544,-133.287 5.22831,-52.80397 10.63554,-107.40373 -17.1,-154.764 -23.26746,-39.73073 -63.46412,-62.67879 -102.336996,-84.872 -37.448123,-21.37979 -72.82082359,-41.57453 -91.866006,-74.975 -11.228821,-19.69253 -15.774146,-42.50197 -20.589,-66.65 -3.149146,-15.79397 -6.403009,-32.12534 -11.714,-47.985013 -16.570009,-49.481332 -51.527998,-89.5309991 -87.610008,-122.947"
       style="opacity:0.1;fill:none;stroke:#c4baaf;stroke-width:28;stroke-linecap:round;stroke-linejoin:round;stroke-miterlimit:4" />
  </g>
</svg>
