<?xml version="1.0" encoding="UTF-8" standalone="no"?>
<svg
   xmlns:svg="http://www.w3.org/2000/svg"
   xmlns="http://www.w3.org/2000/svg"
   version="1.1"
   viewBox="0 0 400 660"
   height="660"
   width="400">
  <defs>
    <clipPath
       id="clipPath997"
       clipPathUnits="userSpaceOnUse">
      <rect
         width="400"
         height="660"
         x="1200"
         y="-3.0000076" />
    </clipPath>
  </defs>
  <g
     transform="translate(-1200,3)"
     clip-path="url(#clipPath997)">
    <path
       d="m 1547.6751,788.48077 c -3.746,-34.7 -19.355,-85.19589 -27.9095,-119.42627 -12.1385,-48.57162 -32.8826,-74.87107 -59.188,-97.23268 -26.3054,-22.3616 -38.8672,-35.05686 -47.601,-49.29312 -10.1538,-16.55067 -15.6177,-56.74822 -10.482,-74.87737 5.1357,-18.12915 21.1403,-35.35149 37.7918,-34.96265 16.6515,0.38884 47.4703,8.63317 83.8784,87.54959 36.4082,78.91641 83.5297,124.0849 118.3067,142.0759"
       style="opacity:0.1;fill:none;stroke:#c4baaf;stroke-width:28;stroke-linecap:round;stroke-linejoin:round;stroke-miterlimit:4" />
    <path
       d="m 1377.2274,-66.878732 c 11.7767,22.081333 24.4706,43.634676 38.094,64.6520003 6.5959,10.175677 13.3373,19.9385847 23.234,27.6199997 10.2383,7.946585 21.6994,11.972766 32.783,15.865 7.9784,2.801767 15.5165,5.44986 21.833,9.347 24.3995,15.05386 29.8029,45.008484 36.062,79.693002 4.7099,26.09947 9.5765,53.08268 23.65,75.88399 10.5315,17.06269 25.3604,30.2007 39.7,42.9 17.0614,15.1097 33.1763,29.3799 39.752,48.338 1.8383,5.2999 3.3017,11.44461 4.853,17.948 1.9417,8.13961 4.4926,16.36337 6.944,24.26301 7.3068,23.54672 25.9977,37.60228 50.646,49.608 56.8374,27.68443 46.417,77.779 35.57,133.391 -4.435,22.738 -8.9982,46.24905 -8.109,67.9 0.1953,4.75439 0.6993,9.49106 1.576,14.168"
       style="opacity:0.1;fill:none;stroke:#c4baaf;stroke-width:28;stroke-linecap:round;stroke-linejoin:round;stroke-miterlimit:4" />
    <path
       d="m 1560.4933,-63.873904 c 16.087,23.724 24.372,53.633 30.247,77.862 5.875,24.229 9.6393,39.762439 17.205,54.117 8.6973,16.50144 22.6387,31.753383 42.623,46.620004 10.0917,7.50738 20.7754,14.30802 31.107,20.883 18.2294,11.60102 35.4484,22.56163 49.756,37.1 12.5424,12.74463 22.882,28.324 31.333,47.292"
       style="opacity:0.1;fill:none;stroke:#c4baaf;stroke-width:20;stroke-linecap:round;stroke-linejoin:round;stroke-miterlimit:4" />
  </g>
</svg>
